<svg width="1386" height="263" viewBox="0 0 1386 263" fill="none" xmlns="http://www.w3.org/2000/svg">
<path d="M1286.88 122.039C1300.29 122.039 1311.16 111.2 1311.16 97.8295C1311.16 84.455 1300.29 73.6162 1286.88 73.6162C1273.5 73.6162 1262.62 84.455 1262.62 97.8295C1262.62 111.2 1273.5 122.039 1286.88 122.039Z" fill="#ffffff"/>
<path d="M1286.88 195.508C1300.96 195.508 1312.39 184.113 1312.39 170.078C1312.39 156.008 1300.96 144.613 1286.88 144.613C1272.81 144.613 1261.38 156.011 1261.38 170.078C1261.38 184.113 1272.81 195.508 1286.88 195.508Z" fill="#ffffff"/>
<path d="M1335.01 25.4454C1335.01 39.4926 1346.43 50.9021 1360.5 50.9021C1374.61 50.9021 1386 39.4889 1386 25.4454C1386 11.4094 1374.61 0 1360.5 0C1346.43 0 1335.01 11.4132 1335.01 25.4454Z" fill="#ffffff"/>
<path d="M1261.38 25.4454C1261.38 39.4926 1272.8 50.9021 1286.88 50.9021C1300.98 50.9021 1312.39 39.4889 1312.39 25.4454C1312.39 11.4094 1300.98 0 1286.88 0C1272.8 0 1261.38 11.4132 1261.38 25.4454Z" fill="#ffffff"/>
<path d="M1187.77 25.4454C1187.77 39.4926 1199.15 50.9021 1213.26 50.9021C1227.34 50.9021 1238.76 39.4889 1238.76 25.4454C1238.76 11.4094 1227.34 0 1213.26 0C1199.15 0 1187.77 11.4132 1187.77 25.4454Z" fill="#ffffff"/>
<path d="M380.83 261.524V104.146H422.687V161.32L489.921 104.146H548.848L463.555 178.275L560.979 261.524H498.586L422.687 196.255V261.524H380.83Z" fill="#ffffff"/>
<path d="M785.779 261.542V104.662H827.821L827.966 261.542H785.779Z" fill="#ffffff"/>
<path d="M361.806 104.662L361.806 140.257H240.104L240.104 163.987H309.522L309.51 196.285H240.104L240.104 226.607H361.806L361.799 262.039H200.666V104.662H361.806Z" fill="#ffffff"/>
<path d="M758.701 104.166H717.122V200.239L607.921 104.166H574.693V261.543H616.693V165.303L724.795 261.543H758.701V104.166Z" fill="#ffffff"/>
<path d="M0 104.662H182.167V140.257H111.398V262.039L69.2119 262.119V140.336L0 140.257V104.662Z" fill="#ffffff"/>
<path d="M1161.44 104.662H1119.91L1029.6 262.039L1074.53 262.045L1093.38 231.226L1189.12 231.221L1207.61 262.039H1252.4L1161.44 104.662ZM1108.7 195.631L1143.81 135.713L1138.81 134.714L1173.4 195.743L1108.7 195.631Z" fill="#ffffff"/>
<path d="M1026.07 148.823H984.121C984.075 145.206 984.045 148.644 984.041 145.012C984.038 141.38 981.571 140.273 979.367 140.273H904.965C901.155 140.273 898.913 143.606 898.913 146.025V161.438C898.913 166.838 903.189 166.838 905.681 166.838H990.966H993.549C1026.07 166.838 1026.07 187.451 1026.07 199.268V234.921C1026.07 246.591 1026.07 261.545 1001.98 261.545H889.086C864.01 261.545 856.775 247.228 856.775 225.706V217.376H899.015V220.823C899.015 221.394 899.015 225.736 905.681 225.736H979.379C982.644 225.736 983.449 223.936 983.309 220.823L983.31 202.461C983.31 199.799 982.049 198.995 979.694 198.995H889.207C879.212 198.995 856.776 199.214 856.776 171.58V129.545C856.776 112.225 866.275 104.146 881.299 104.146H994.685C1011.81 104.146 1026.07 111.843 1026.07 129.526V148.823H1026.07Z" fill="#ffffff"/>
</svg>
