<svg xmlns="http://www.w3.org/2000/svg" viewBox="0 0 320 80" fill="none">
  <g fill="#ffffff">
    <path d="M14 24h32v6H34v32h-8V30H14z"/>
    <path d="M54 24h28v6H62v8h18v6H62v10h20v6H54z"/>
    <path d="M92 24h8v18l16-18h10l-16 18 17 22h-10l-13-18-4 4v14h-8z"/>
    <path d="M138 24h8v38h-8z"/>
    <path d="M156 24h8l18 25V24h8v38h-8l-18-25v25h-8z"/>
    <path d="M204 24h10l16 38h-9l-3-8h-18l-3 8h-9zm2 24h12l-6-15z"/>
    <path d="M244 24h8v38h-8z"/>
    <path d="M262 50c2 4 6 7 11 7 4 0 7-2 7-5 0-3-3-5-9-6-9-2-13-5-13-12 0-6 5-11 14-11 7 0 12 3 15 8l-7 4c-2-3-5-5-8-5-4 0-6 2-6 4 0 3 2 4 9 6 9 2 14 5 14 12 0 7-5 12-15 12-8 0-14-4-17-10z"/>
  </g>
</svg>
