<svg width="411" height="731" viewBox="0 0 411 731" fill="none" xmlns="http://www.w3.org/2000/svg">
<g clip-path="url(#clip0_63_9295)">
<rect width="411" height="731" fill="white"/>
<g clip-path="url(#clip1_63_9295)">
<rect width="411" height="731" fill="#0039A5"/>
</g>
<path fill-rule="evenodd" clip-rule="evenodd" d="M287.014 325.014C287.014 370.302 250.302 407.014 205.014 407.014C159.727 407.014 123.014 370.302 123.014 325.014C123.014 279.727 159.727 243.014 205.014 243.014C250.302 243.014 287.014 279.727 287.014 325.014ZM281.014 325.014C281.014 364.779 244.779 401.014 205.014 401.014C165.25 401.014 129.014 364.779 129.014 325.014C129.014 285.25 165.25 249.014 205.014 249.014C244.779 249.014 281.014 285.25 281.014 325.014Z" fill="#C4C4C4" style="mix-blend-mode:multiply"/>
<path fill-rule="evenodd" clip-rule="evenodd" d="M287.014 325.014C287.014 370.302 250.302 407.014 205.014 407.014C159.727 407.014 123.014 370.302 123.014 325.014C123.014 279.727 159.727 243.014 205.014 243.014C250.302 243.014 287.014 279.727 287.014 325.014ZM281.014 325.014C281.014 364.779 244.779 401.014 205.014 401.014C165.25 401.014 129.014 364.779 129.014 325.014C129.014 285.25 165.25 249.014 205.014 249.014C244.779 249.014 281.014 285.25 281.014 325.014Z" fill="url(#paint0_linear_63_9295)"/>
<path fill-rule="evenodd" clip-rule="evenodd" d="M246.014 396.028C206.794 418.672 156.644 405.234 134 366.014C111.357 326.794 124.794 276.644 164.014 254C203.234 231.356 253.385 244.794 276.028 284.014C298.672 323.234 285.234 373.384 246.014 396.028ZM243.014 390.832C208.577 410.714 159.079 397.451 139.196 363.014C119.314 328.577 132.577 279.078 167.014 259.196C201.451 239.314 250.95 252.577 270.832 287.014C290.714 321.451 277.451 370.95 243.014 390.832Z" fill="url(#paint1_linear_63_9295)"/>
<path d="M171.602 474.547H164.453L162.848 479H160.527L167.043 461.938H169.012L175.539 479H173.23L171.602 474.547ZM165.133 472.695H170.934L168.027 464.715L165.133 472.695ZM176.98 472.555C176.98 470.578 177.438 469.008 178.352 467.844C179.266 466.672 180.477 466.086 181.984 466.086C183.531 466.086 184.738 466.633 185.605 467.727L185.711 466.32H187.691V478.695C187.691 480.336 187.203 481.629 186.227 482.574C185.258 483.52 183.953 483.992 182.312 483.992C181.398 483.992 180.504 483.797 179.629 483.406C178.754 483.016 178.086 482.48 177.625 481.801L178.75 480.5C179.68 481.648 180.816 482.223 182.16 482.223C183.215 482.223 184.035 481.926 184.621 481.332C185.215 480.738 185.512 479.902 185.512 478.824V477.734C184.645 478.734 183.461 479.234 181.961 479.234C180.477 479.234 179.273 478.637 178.352 477.441C177.438 476.246 176.98 474.617 176.98 472.555ZM179.16 472.801C179.16 474.23 179.453 475.355 180.039 476.176C180.625 476.988 181.445 477.395 182.5 477.395C183.867 477.395 184.871 476.773 185.512 475.531V469.742C184.848 468.531 183.852 467.926 182.523 467.926C181.469 467.926 180.645 468.336 180.051 469.156C179.457 469.977 179.16 471.191 179.16 472.801ZM198.801 477.746C197.957 478.738 196.719 479.234 195.086 479.234C193.734 479.234 192.703 478.844 191.992 478.062C191.289 477.273 190.934 476.109 190.926 474.57V466.32H193.094V474.512C193.094 476.434 193.875 477.395 195.438 477.395C197.094 477.395 198.195 476.777 198.742 475.543V466.32H200.91V479H198.848L198.801 477.746ZM212.043 479C211.918 478.75 211.816 478.305 211.738 477.664C210.73 478.711 209.527 479.234 208.129 479.234C206.879 479.234 205.852 478.883 205.047 478.18C204.25 477.469 203.852 476.57 203.852 475.484C203.852 474.164 204.352 473.141 205.352 472.414C206.359 471.68 207.773 471.312 209.594 471.312H211.703V470.316C211.703 469.559 211.477 468.957 211.023 468.512C210.57 468.059 209.902 467.832 209.02 467.832C208.246 467.832 207.598 468.027 207.074 468.418C206.551 468.809 206.289 469.281 206.289 469.836H204.109C204.109 469.203 204.332 468.594 204.777 468.008C205.23 467.414 205.84 466.945 206.605 466.602C207.379 466.258 208.227 466.086 209.148 466.086C210.609 466.086 211.754 466.453 212.582 467.188C213.41 467.914 213.84 468.918 213.871 470.199V476.035C213.871 477.199 214.02 478.125 214.316 478.812V479H212.043ZM208.445 477.348C209.125 477.348 209.77 477.172 210.379 476.82C210.988 476.469 211.43 476.012 211.703 475.449V472.848H210.004C207.348 472.848 206.02 473.625 206.02 475.18C206.02 475.859 206.246 476.391 206.699 476.773C207.152 477.156 207.734 477.348 208.445 477.348ZM223.398 468.266C223.07 468.211 222.715 468.184 222.332 468.184C220.91 468.184 219.945 468.789 219.438 470V479H217.27V466.32H219.379L219.414 467.785C220.125 466.652 221.133 466.086 222.438 466.086C222.859 466.086 223.18 466.141 223.398 466.25V468.266ZM224.641 472.555C224.641 470.609 225.102 469.047 226.023 467.867C226.945 466.68 228.152 466.086 229.645 466.086C231.129 466.086 232.305 466.594 233.172 467.609V461H235.34V479H233.348L233.242 477.641C232.375 478.703 231.168 479.234 229.621 479.234C228.152 479.234 226.953 478.633 226.023 477.43C225.102 476.227 224.641 474.656 224.641 472.719V472.555ZM226.809 472.801C226.809 474.238 227.105 475.363 227.699 476.176C228.293 476.988 229.113 477.395 230.16 477.395C231.535 477.395 232.539 476.777 233.172 475.543V469.719C232.523 468.523 231.527 467.926 230.184 467.926C229.121 467.926 228.293 468.336 227.699 469.156C227.105 469.977 226.809 471.191 226.809 472.801ZM243.977 479.234C242.258 479.234 240.859 478.672 239.781 477.547C238.703 476.414 238.164 474.902 238.164 473.012V472.613C238.164 471.355 238.402 470.234 238.879 469.25C239.363 468.258 240.035 467.484 240.895 466.93C241.762 466.367 242.699 466.086 243.707 466.086C245.355 466.086 246.637 466.629 247.551 467.715C248.465 468.801 248.922 470.355 248.922 472.379V473.281H240.332C240.363 474.531 240.727 475.543 241.422 476.316C242.125 477.082 243.016 477.465 244.094 477.465C244.859 477.465 245.508 477.309 246.039 476.996C246.57 476.684 247.035 476.27 247.434 475.754L248.758 476.785C247.695 478.418 246.102 479.234 243.977 479.234ZM243.707 467.867C242.832 467.867 242.098 468.188 241.504 468.828C240.91 469.461 240.543 470.352 240.402 471.5H246.754V471.336C246.691 470.234 246.395 469.383 245.863 468.781C245.332 468.172 244.613 467.867 243.707 467.867Z" fill="#F2F2F2"/>
</g>
<defs>
<linearGradient id="paint0_linear_63_9295" x1="321.514" y1="385.014" x2="103.014" y2="386.514" gradientUnits="userSpaceOnUse">
<stop offset="0.535812" stop-color="#F2F2F2"/>
<stop offset="0.535912" stop-color="#C4C4C4" stop-opacity="0"/>
</linearGradient>
<linearGradient id="paint1_linear_63_9295" x1="211.303" y1="455.906" x2="100.754" y2="267.429" gradientUnits="userSpaceOnUse">
<stop offset="0.535812" stop-color="#F2F2F2"/>
<stop offset="0.535912" stop-color="#C4C4C4" stop-opacity="0"/>
</linearGradient>
<clipPath id="clip0_63_9295">
<rect width="411" height="731" fill="white"/>
</clipPath>
<clipPath id="clip1_63_9295">
<rect width="411" height="731" fill="white"/>
</clipPath>
</defs>
</svg>
