<svg width="411" height="731" viewBox="0 0 411 731" fill="none" xmlns="http://www.w3.org/2000/svg">
<g clip-path="url(#clip0_502_12974)">
<rect width="411" height="731" fill="white"/>
<g clip-path="url(#clip1_502_12974)">
<rect width="411" height="731" fill="#0039A5"/>
</g>
<path d="M58 436H353V437H58V436Z" fill="#F2F2F2"/>
<path d="M75.8125 397.057H72.1152V400.08H76.4102V401H70.9902V392.469H76.3516V393.395H72.1152V396.137H75.8125V397.057ZM78.6602 394.66L78.6895 395.363C79.1543 394.816 79.7812 394.543 80.5703 394.543C81.457 394.543 82.0605 394.883 82.3809 395.562C82.5918 395.258 82.8652 395.012 83.2012 394.824C83.541 394.637 83.9414 394.543 84.4023 394.543C85.793 394.543 86.5 395.279 86.5234 396.752V401H85.4395V396.816C85.4395 396.363 85.3359 396.025 85.1289 395.803C84.9219 395.576 84.5742 395.463 84.0859 395.463C83.6836 395.463 83.3496 395.584 83.084 395.826C82.8184 396.064 82.6641 396.387 82.6211 396.793V401H81.5312V396.846C81.5312 395.924 81.0801 395.463 80.1777 395.463C79.4668 395.463 78.9805 395.766 78.7188 396.371V401H77.6348V394.66H78.6602ZM92.0781 401C92.0156 400.875 91.9648 400.652 91.9258 400.332C91.4219 400.855 90.8203 401.117 90.1211 401.117C89.4961 401.117 88.9824 400.941 88.5801 400.59C88.1816 400.234 87.9824 399.785 87.9824 399.242C87.9824 398.582 88.2324 398.07 88.7324 397.707C89.2363 397.34 89.9434 397.156 90.8535 397.156H91.9082V396.658C91.9082 396.279 91.7949 395.979 91.5684 395.756C91.3418 395.529 91.0078 395.416 90.5664 395.416C90.1797 395.416 89.8555 395.514 89.5938 395.709C89.332 395.904 89.2012 396.141 89.2012 396.418H88.1113C88.1113 396.102 88.2227 395.797 88.4453 395.504C88.6719 395.207 88.9766 394.973 89.3594 394.801C89.7461 394.629 90.1699 394.543 90.6309 394.543C91.3613 394.543 91.9336 394.727 92.3477 395.094C92.7617 395.457 92.9766 395.959 92.9922 396.6V399.518C92.9922 400.1 93.0664 400.562 93.2148 400.906V401H92.0781ZM90.2793 400.174C90.6191 400.174 90.9414 400.086 91.2461 399.91C91.5508 399.734 91.7715 399.506 91.9082 399.225V397.924H91.0586C89.7305 397.924 89.0664 398.312 89.0664 399.09C89.0664 399.43 89.1797 399.695 89.4062 399.887C89.6328 400.078 89.9238 400.174 90.2793 400.174ZM95.8691 401H94.7852V394.66H95.8691V401ZM94.6973 392.979C94.6973 392.803 94.75 392.654 94.8555 392.533C94.9648 392.412 95.125 392.352 95.3359 392.352C95.5469 392.352 95.707 392.412 95.8164 392.533C95.9258 392.654 95.9805 392.803 95.9805 392.979C95.9805 393.154 95.9258 393.301 95.8164 393.418C95.707 393.535 95.5469 393.594 95.3359 393.594C95.125 393.594 94.9648 393.535 94.8555 393.418C94.75 393.301 94.6973 393.154 94.6973 392.979ZM98.7871 401H97.7031V392H98.7871V401Z" fill="#6EB2FF"/>
<path d="M72.5859 412.547V421.977C72.5859 423.602 71.849 424.414 70.375 424.414C70.0573 424.414 69.763 424.367 69.4922 424.273V423.117C69.6589 423.159 69.8776 423.18 70.1484 423.18C70.4714 423.18 70.7161 423.091 70.8828 422.914C71.0547 422.742 71.1406 422.44 71.1406 422.008V412.547H72.5859ZM70.9922 410.305C70.9922 410.076 71.0625 409.88 71.2031 409.719C71.349 409.552 71.5599 409.469 71.8359 409.469C72.1172 409.469 72.3307 409.549 72.4766 409.711C72.6224 409.872 72.6953 410.07 72.6953 410.305C72.6953 410.539 72.6224 410.734 72.4766 410.891C72.3307 411.047 72.1172 411.125 71.8359 411.125C71.5547 411.125 71.3438 411.047 71.2031 410.891C71.0625 410.734 70.9922 410.539 70.9922 410.305ZM74.5391 416.695C74.5391 415.867 74.7005 415.122 75.0234 414.461C75.3516 413.799 75.8047 413.289 76.3828 412.93C76.9661 412.57 77.6302 412.391 78.375 412.391C79.526 412.391 80.4557 412.789 81.1641 413.586C81.8776 414.383 82.2344 415.443 82.2344 416.766V416.867C82.2344 417.69 82.0755 418.43 81.7578 419.086C81.4453 419.737 80.9948 420.245 80.4062 420.609C79.8229 420.974 79.151 421.156 78.3906 421.156C77.2448 421.156 76.3151 420.758 75.6016 419.961C74.8932 419.164 74.5391 418.109 74.5391 416.797V416.695ZM75.9922 416.867C75.9922 417.805 76.2083 418.557 76.6406 419.125C77.0781 419.693 77.6615 419.977 78.3906 419.977C79.125 419.977 79.7083 419.69 80.1406 419.117C80.5729 418.539 80.7891 417.732 80.7891 416.695C80.7891 415.768 80.5677 415.018 80.125 414.445C79.6875 413.867 79.1042 413.578 78.375 413.578C77.6615 413.578 77.0859 413.862 76.6484 414.43C76.2109 414.997 75.9922 415.81 75.9922 416.867ZM85.4922 413.57C86.1328 412.784 86.9661 412.391 87.9922 412.391C89.7786 412.391 90.6797 413.398 90.6953 415.414V421H89.25V415.406C89.2448 414.797 89.1042 414.346 88.8281 414.055C88.5573 413.763 88.1328 413.617 87.5547 413.617C87.0859 413.617 86.6745 413.742 86.3203 413.992C85.9661 414.242 85.6901 414.57 85.4922 414.977V421H84.0469V409H85.4922V413.57ZM94.2266 412.547L94.2734 413.609C94.9193 412.797 95.763 412.391 96.8047 412.391C98.5911 412.391 99.4922 413.398 99.5078 415.414V421H98.0625V415.406C98.0573 414.797 97.9167 414.346 97.6406 414.055C97.3698 413.763 96.9453 413.617 96.3672 413.617C95.8984 413.617 95.487 413.742 95.1328 413.992C94.7786 414.242 94.5026 414.57 94.3047 414.977V421H92.8594V412.547H94.2266ZM101.719 420.242C101.719 419.992 101.792 419.784 101.938 419.617C102.089 419.451 102.312 419.367 102.609 419.367C102.906 419.367 103.13 419.451 103.281 419.617C103.438 419.784 103.516 419.992 103.516 420.242C103.516 420.482 103.438 420.682 103.281 420.844C103.13 421.005 102.906 421.086 102.609 421.086C102.312 421.086 102.089 421.005 101.938 420.844C101.792 420.682 101.719 420.482 101.719 420.242ZM105.555 416.703C105.555 415.406 105.862 414.365 106.477 413.578C107.091 412.786 107.896 412.391 108.891 412.391C109.88 412.391 110.664 412.729 111.242 413.406V409H112.688V421H111.359L111.289 420.094C110.711 420.802 109.906 421.156 108.875 421.156C107.896 421.156 107.096 420.755 106.477 419.953C105.862 419.151 105.555 418.104 105.555 416.812V416.703ZM107 416.867C107 417.826 107.198 418.576 107.594 419.117C107.99 419.659 108.536 419.93 109.234 419.93C110.151 419.93 110.82 419.518 111.242 418.695V414.812C110.81 414.016 110.146 413.617 109.25 413.617C108.542 413.617 107.99 413.891 107.594 414.438C107.198 414.984 107 415.794 107 416.867ZM114.555 416.695C114.555 415.867 114.716 415.122 115.039 414.461C115.367 413.799 115.82 413.289 116.398 412.93C116.982 412.57 117.646 412.391 118.391 412.391C119.542 412.391 120.471 412.789 121.18 413.586C121.893 414.383 122.25 415.443 122.25 416.766V416.867C122.25 417.69 122.091 418.43 121.773 419.086C121.461 419.737 121.01 420.245 120.422 420.609C119.839 420.974 119.167 421.156 118.406 421.156C117.26 421.156 116.331 420.758 115.617 419.961C114.909 419.164 114.555 418.109 114.555 416.797V416.695ZM116.008 416.867C116.008 417.805 116.224 418.557 116.656 419.125C117.094 419.693 117.677 419.977 118.406 419.977C119.141 419.977 119.724 419.69 120.156 419.117C120.589 418.539 120.805 417.732 120.805 416.695C120.805 415.768 120.583 415.018 120.141 414.445C119.703 413.867 119.12 413.578 118.391 413.578C117.677 413.578 117.102 413.862 116.664 414.43C116.227 414.997 116.008 415.81 116.008 416.867ZM127.57 421.156C126.424 421.156 125.492 420.781 124.773 420.031C124.055 419.276 123.695 418.268 123.695 417.008V416.742C123.695 415.904 123.854 415.156 124.172 414.5C124.495 413.839 124.943 413.323 125.516 412.953C126.094 412.578 126.719 412.391 127.391 412.391C128.49 412.391 129.344 412.753 129.953 413.477C130.562 414.201 130.867 415.237 130.867 416.586V417.188H125.141C125.161 418.021 125.404 418.695 125.867 419.211C126.336 419.721 126.93 419.977 127.648 419.977C128.159 419.977 128.591 419.872 128.945 419.664C129.299 419.456 129.609 419.18 129.875 418.836L130.758 419.523C130.049 420.612 128.987 421.156 127.57 421.156ZM127.391 413.578C126.807 413.578 126.318 413.792 125.922 414.219C125.526 414.641 125.281 415.234 125.188 416H129.422V415.891C129.38 415.156 129.182 414.589 128.828 414.188C128.474 413.781 127.995 413.578 127.391 413.578ZM145.031 417.078C144.969 418.339 144.656 419.333 144.094 420.062C143.531 420.792 142.779 421.156 141.836 421.156C140.862 421.156 140.237 420.719 139.961 419.844C139.68 420.286 139.357 420.617 138.992 420.836C138.633 421.049 138.26 421.156 137.875 421.156C137.135 421.156 136.576 420.854 136.195 420.25C135.815 419.646 135.674 418.81 135.773 417.742C135.852 416.883 136.047 416.117 136.359 415.445C136.677 414.768 137.083 414.237 137.578 413.852C138.078 413.466 138.602 413.273 139.148 413.273C139.57 413.273 139.948 413.331 140.281 413.445C140.615 413.555 140.99 413.773 141.406 414.102L141 418.43C140.901 419.633 141.234 420.234 142 420.234C142.589 420.234 143.065 419.943 143.43 419.359C143.794 418.776 143.992 418.016 144.023 417.078C144.122 415.052 143.745 413.508 142.891 412.445C142.042 411.383 140.747 410.852 139.008 410.852C137.961 410.852 137.031 411.112 136.219 411.633C135.406 412.148 134.766 412.896 134.297 413.875C133.828 414.854 133.565 415.984 133.508 417.266C133.445 418.557 133.602 419.68 133.977 420.633C134.352 421.581 134.922 422.305 135.688 422.805C136.458 423.31 137.388 423.562 138.477 423.562C138.945 423.562 139.414 423.505 139.883 423.391C140.357 423.276 140.75 423.128 141.062 422.945L141.352 423.844C141.029 424.047 140.599 424.214 140.062 424.344C139.531 424.474 138.992 424.539 138.445 424.539C137.143 424.539 136.023 424.245 135.086 423.656C134.148 423.073 133.445 422.229 132.977 421.125C132.513 420.026 132.312 418.74 132.375 417.266C132.438 415.833 132.758 414.547 133.336 413.406C133.914 412.26 134.698 411.378 135.688 410.758C136.677 410.133 137.794 409.82 139.039 409.82C140.336 409.82 141.448 410.112 142.375 410.695C143.302 411.279 143.992 412.12 144.445 413.219C144.898 414.318 145.094 415.604 145.031 417.078ZM137.016 417.742C136.943 418.482 137.01 419.049 137.219 419.445C137.432 419.841 137.768 420.039 138.227 420.039C138.539 420.039 138.839 419.906 139.125 419.641C139.417 419.375 139.656 418.995 139.844 418.5L139.852 418.43L140.211 414.5C139.919 414.349 139.607 414.273 139.273 414.273C138.664 414.273 138.159 414.583 137.758 415.203C137.362 415.823 137.115 416.669 137.016 417.742ZM146.578 416.703C146.578 415.385 146.883 414.339 147.492 413.562C148.102 412.781 148.909 412.391 149.914 412.391C150.945 412.391 151.75 412.755 152.328 413.484L152.398 412.547H153.719V420.797C153.719 421.891 153.393 422.753 152.742 423.383C152.096 424.013 151.227 424.328 150.133 424.328C149.523 424.328 148.927 424.198 148.344 423.938C147.76 423.677 147.315 423.32 147.008 422.867L147.758 422C148.378 422.766 149.135 423.148 150.031 423.148C150.734 423.148 151.281 422.951 151.672 422.555C152.068 422.159 152.266 421.602 152.266 420.883V420.156C151.688 420.823 150.898 421.156 149.898 421.156C148.909 421.156 148.107 420.758 147.492 419.961C146.883 419.164 146.578 418.078 146.578 416.703ZM148.031 416.867C148.031 417.82 148.227 418.57 148.617 419.117C149.008 419.659 149.555 419.93 150.258 419.93C151.169 419.93 151.839 419.516 152.266 418.688V414.828C151.823 414.021 151.159 413.617 150.273 413.617C149.57 413.617 149.021 413.891 148.625 414.438C148.229 414.984 148.031 415.794 148.031 416.867ZM157.266 412.547L157.305 413.484C157.924 412.755 158.76 412.391 159.812 412.391C160.995 412.391 161.799 412.844 162.227 413.75C162.508 413.344 162.872 413.016 163.32 412.766C163.773 412.516 164.307 412.391 164.922 412.391C166.776 412.391 167.719 413.372 167.75 415.336V421H166.305V415.422C166.305 414.818 166.167 414.367 165.891 414.07C165.615 413.768 165.151 413.617 164.5 413.617C163.964 413.617 163.518 413.779 163.164 414.102C162.81 414.419 162.604 414.849 162.547 415.391V421H161.094V415.461C161.094 414.232 160.492 413.617 159.289 413.617C158.341 413.617 157.693 414.021 157.344 414.828V421H155.898V412.547H157.266ZM175.156 421C175.073 420.833 175.005 420.536 174.953 420.109C174.281 420.807 173.479 421.156 172.547 421.156C171.714 421.156 171.029 420.922 170.492 420.453C169.961 419.979 169.695 419.38 169.695 418.656C169.695 417.776 170.029 417.094 170.695 416.609C171.367 416.12 172.31 415.875 173.523 415.875H174.93V415.211C174.93 414.706 174.779 414.305 174.477 414.008C174.174 413.706 173.729 413.555 173.141 413.555C172.625 413.555 172.193 413.685 171.844 413.945C171.495 414.206 171.32 414.521 171.32 414.891H169.867C169.867 414.469 170.016 414.062 170.312 413.672C170.615 413.276 171.021 412.964 171.531 412.734C172.047 412.505 172.612 412.391 173.227 412.391C174.201 412.391 174.964 412.635 175.516 413.125C176.068 413.609 176.354 414.279 176.375 415.133V419.023C176.375 419.799 176.474 420.417 176.672 420.875V421H175.156ZM172.758 419.898C173.211 419.898 173.641 419.781 174.047 419.547C174.453 419.312 174.747 419.008 174.93 418.633V416.898H173.797C172.026 416.898 171.141 417.417 171.141 418.453C171.141 418.906 171.292 419.26 171.594 419.516C171.896 419.771 172.284 419.898 172.758 419.898ZM180.211 421H178.766V412.547H180.211V421ZM178.648 410.305C178.648 410.07 178.719 409.872 178.859 409.711C179.005 409.549 179.219 409.469 179.5 409.469C179.781 409.469 179.995 409.549 180.141 409.711C180.286 409.872 180.359 410.07 180.359 410.305C180.359 410.539 180.286 410.734 180.141 410.891C179.995 411.047 179.781 411.125 179.5 411.125C179.219 411.125 179.005 411.047 178.859 410.891C178.719 410.734 178.648 410.539 178.648 410.305ZM184.102 421H182.656V409H184.102V421ZM186.453 420.242C186.453 419.992 186.526 419.784 186.672 419.617C186.823 419.451 187.047 419.367 187.344 419.367C187.641 419.367 187.865 419.451 188.016 419.617C188.172 419.784 188.25 419.992 188.25 420.242C188.25 420.482 188.172 420.682 188.016 420.844C187.865 421.005 187.641 421.086 187.344 421.086C187.047 421.086 186.823 421.005 186.672 420.844C186.526 420.682 186.453 420.482 186.453 420.242ZM194.031 419.977C194.547 419.977 194.997 419.82 195.383 419.508C195.768 419.195 195.982 418.805 196.023 418.336H197.391C197.365 418.82 197.198 419.281 196.891 419.719C196.583 420.156 196.172 420.505 195.656 420.766C195.146 421.026 194.604 421.156 194.031 421.156C192.88 421.156 191.964 420.773 191.281 420.008C190.604 419.237 190.266 418.185 190.266 416.852V416.609C190.266 415.786 190.417 415.055 190.719 414.414C191.021 413.773 191.453 413.276 192.016 412.922C192.583 412.568 193.253 412.391 194.023 412.391C194.971 412.391 195.758 412.674 196.383 413.242C197.013 413.81 197.349 414.547 197.391 415.453H196.023C195.982 414.906 195.773 414.458 195.398 414.109C195.029 413.755 194.57 413.578 194.023 413.578C193.289 413.578 192.719 413.844 192.312 414.375C191.911 414.901 191.711 415.664 191.711 416.664V416.938C191.711 417.911 191.911 418.661 192.312 419.188C192.714 419.714 193.286 419.977 194.031 419.977ZM198.633 416.695C198.633 415.867 198.794 415.122 199.117 414.461C199.445 413.799 199.898 413.289 200.477 412.93C201.06 412.57 201.724 412.391 202.469 412.391C203.62 412.391 204.549 412.789 205.258 413.586C205.971 414.383 206.328 415.443 206.328 416.766V416.867C206.328 417.69 206.169 418.43 205.852 419.086C205.539 419.737 205.089 420.245 204.5 420.609C203.917 420.974 203.245 421.156 202.484 421.156C201.339 421.156 200.409 420.758 199.695 419.961C198.987 419.164 198.633 418.109 198.633 416.797V416.695ZM200.086 416.867C200.086 417.805 200.302 418.557 200.734 419.125C201.172 419.693 201.755 419.977 202.484 419.977C203.219 419.977 203.802 419.69 204.234 419.117C204.667 418.539 204.883 417.732 204.883 416.695C204.883 415.768 204.661 415.018 204.219 414.445C203.781 413.867 203.198 413.578 202.469 413.578C201.755 413.578 201.18 413.862 200.742 414.43C200.305 414.997 200.086 415.81 200.086 416.867ZM209.5 412.547L209.539 413.484C210.159 412.755 210.995 412.391 212.047 412.391C213.229 412.391 214.034 412.844 214.461 413.75C214.742 413.344 215.107 413.016 215.555 412.766C216.008 412.516 216.542 412.391 217.156 412.391C219.01 412.391 219.953 413.372 219.984 415.336V421H218.539V415.422C218.539 414.818 218.401 414.367 218.125 414.07C217.849 413.768 217.385 413.617 216.734 413.617C216.198 413.617 215.753 413.779 215.398 414.102C215.044 414.419 214.839 414.849 214.781 415.391V421H213.328V415.461C213.328 414.232 212.727 413.617 211.523 413.617C210.576 413.617 209.927 414.021 209.578 414.828V421H208.133V412.547H209.5Z" fill="#F2F2F2"/>
<path d="M58 508H353V509H58V508Z" fill="#F2F2F2"/>
<path d="M73.5039 469.197C72.5391 468.92 71.8359 468.58 71.3945 468.178C70.957 467.771 70.7383 467.271 70.7383 466.678C70.7383 466.006 71.0059 465.451 71.541 465.014C72.0801 464.572 72.7793 464.352 73.6387 464.352C74.2246 464.352 74.7461 464.465 75.2031 464.691C75.6641 464.918 76.0195 465.23 76.2695 465.629C76.5234 466.027 76.6504 466.463 76.6504 466.936H75.5195C75.5195 466.42 75.3555 466.016 75.0273 465.723C74.6992 465.426 74.2363 465.277 73.6387 465.277C73.084 465.277 72.6504 465.4 72.3379 465.646C72.0293 465.889 71.875 466.227 71.875 466.66C71.875 467.008 72.0215 467.303 72.3145 467.545C72.6113 467.783 73.1133 468.002 73.8203 468.201C74.5312 468.4 75.0859 468.621 75.4844 468.863C75.8867 469.102 76.1836 469.381 76.375 469.701C76.5703 470.021 76.668 470.398 76.668 470.832C76.668 471.523 76.3984 472.078 75.8594 472.496C75.3203 472.91 74.5996 473.117 73.6973 473.117C73.1113 473.117 72.5645 473.006 72.0566 472.783C71.5488 472.557 71.1562 472.248 70.8789 471.857C70.6055 471.467 70.4688 471.023 70.4688 470.527H71.5996C71.5996 471.043 71.7891 471.451 72.168 471.752C72.5508 472.049 73.0605 472.197 73.6973 472.197C74.291 472.197 74.7461 472.076 75.0625 471.834C75.3789 471.592 75.5371 471.262 75.5371 470.844C75.5371 470.426 75.3906 470.104 75.0977 469.877C74.8047 469.646 74.2734 469.42 73.5039 469.197ZM80.5762 473.117C79.7168 473.117 79.0176 472.836 78.4785 472.273C77.9395 471.707 77.6699 470.951 77.6699 470.006V469.807C77.6699 469.178 77.7891 468.617 78.0273 468.125C78.2695 467.629 78.6055 467.242 79.0352 466.965C79.4688 466.684 79.9375 466.543 80.4414 466.543C81.2656 466.543 81.9062 466.814 82.3633 467.357C82.8203 467.9 83.0488 468.678 83.0488 469.689V470.141H78.7539C78.7695 470.766 78.9512 471.271 79.2988 471.658C79.6504 472.041 80.0957 472.232 80.6348 472.232C81.0176 472.232 81.3418 472.154 81.6074 471.998C81.873 471.842 82.1055 471.635 82.3047 471.377L82.9668 471.893C82.4355 472.709 81.6387 473.117 80.5762 473.117ZM80.4414 467.434C80.0039 467.434 79.6367 467.594 79.3398 467.914C79.043 468.23 78.8594 468.676 78.7891 469.25H81.9648V469.168C81.9336 468.617 81.7852 468.191 81.5195 467.891C81.2539 467.586 80.8945 467.434 80.4414 467.434ZM85.334 466.66L85.3691 467.457C85.8535 466.848 86.4863 466.543 87.2676 466.543C88.6074 466.543 89.2832 467.299 89.2949 468.811V473H88.2109V468.805C88.207 468.348 88.1016 468.01 87.8945 467.791C87.6914 467.572 87.373 467.463 86.9395 467.463C86.5879 467.463 86.2793 467.557 86.0137 467.744C85.748 467.932 85.541 468.178 85.3926 468.482V473H84.3086V466.66H85.334ZM92.0137 467.428C92.4941 466.838 93.1191 466.543 93.8887 466.543C95.2285 466.543 95.9043 467.299 95.916 468.811V473H94.832V468.805C94.8281 468.348 94.7227 468.01 94.5156 467.791C94.3125 467.572 93.9941 467.463 93.5605 467.463C93.209 467.463 92.9004 467.557 92.6348 467.744C92.3691 467.932 92.1621 468.178 92.0137 468.482V473H90.9297V464H92.0137V467.428ZM101.453 473C101.391 472.875 101.34 472.652 101.301 472.332C100.797 472.855 100.195 473.117 99.4961 473.117C98.8711 473.117 98.3574 472.941 97.9551 472.59C97.5566 472.234 97.3574 471.785 97.3574 471.242C97.3574 470.582 97.6074 470.07 98.1074 469.707C98.6113 469.34 99.3184 469.156 100.229 469.156H101.283V468.658C101.283 468.279 101.17 467.979 100.943 467.756C100.717 467.529 100.383 467.416 99.9414 467.416C99.5547 467.416 99.2305 467.514 98.9688 467.709C98.707 467.904 98.5762 468.141 98.5762 468.418H97.4863C97.4863 468.102 97.5977 467.797 97.8203 467.504C98.0469 467.207 98.3516 466.973 98.7344 466.801C99.1211 466.629 99.5449 466.543 100.006 466.543C100.736 466.543 101.309 466.727 101.723 467.094C102.137 467.457 102.352 467.959 102.367 468.6V471.518C102.367 472.1 102.441 472.562 102.59 472.906V473H101.453ZM99.6543 472.174C99.9941 472.174 100.316 472.086 100.621 471.91C100.926 471.734 101.146 471.506 101.283 471.225V469.924H100.434C99.1055 469.924 98.4414 470.312 98.4414 471.09C98.4414 471.43 98.5547 471.695 98.7812 471.887C99.0078 472.078 99.2988 472.174 99.6543 472.174Z" fill="#6EB2FF"/>
<path d="M72.5781 485.32L70.2188 484.617L70.5781 483.438L72.9375 484.312L72.8672 481.625H74.0625L73.9844 484.352L76.3047 483.492L76.6641 484.68L74.2656 485.391L75.8125 487.508L74.8438 488.242L73.3906 485.992L71.9844 488.188L71.0078 487.477L72.5781 485.32ZM79.4688 485.32L77.1094 484.617L77.4688 483.438L79.8281 484.312L79.7578 481.625H80.9531L80.875 484.352L83.1953 483.492L83.5547 484.68L81.1562 485.391L82.7031 487.508L81.7344 488.242L80.2812 485.992L78.875 488.188L77.8984 487.477L79.4688 485.32ZM86.3594 485.32L84 484.617L84.3594 483.438L86.7188 484.312L86.6484 481.625H87.8438L87.7656 484.352L90.0859 483.492L90.4453 484.68L88.0469 485.391L89.5938 487.508L88.625 488.242L87.1719 485.992L85.7656 488.188L84.7891 487.477L86.3594 485.32ZM93.25 485.32L90.8906 484.617L91.25 483.438L93.6094 484.312L93.5391 481.625H94.7344L94.6562 484.352L96.9766 483.492L97.3359 484.68L94.9375 485.391L96.4844 487.508L95.5156 488.242L94.0625 485.992L92.6562 488.188L91.6797 487.477L93.25 485.32ZM100.141 485.32L97.7812 484.617L98.1406 483.438L100.5 484.312L100.43 481.625H101.625L101.547 484.352L103.867 483.492L104.227 484.68L101.828 485.391L103.375 487.508L102.406 488.242L100.953 485.992L99.5469 488.188L98.5703 487.477L100.141 485.32ZM107.031 485.32L104.672 484.617L105.031 483.438L107.391 484.312L107.32 481.625H108.516L108.438 484.352L110.758 483.492L111.117 484.68L108.719 485.391L110.266 487.508L109.297 488.242L107.844 485.992L106.438 488.188L105.461 487.477L107.031 485.32ZM113.922 485.32L111.562 484.617L111.922 483.438L114.281 484.312L114.211 481.625H115.406L115.328 484.352L117.648 483.492L118.008 484.68L115.609 485.391L117.156 487.508L116.188 488.242L114.734 485.992L113.328 488.188L112.352 487.477L113.922 485.32ZM120.812 485.32L118.453 484.617L118.812 483.438L121.172 484.312L121.102 481.625H122.297L122.219 484.352L124.539 483.492L124.898 484.68L122.5 485.391L124.047 487.508L123.078 488.242L121.625 485.992L120.219 488.188L119.242 487.477L120.812 485.32ZM127.703 485.32L125.344 484.617L125.703 483.438L128.062 484.312L127.992 481.625H129.188L129.109 484.352L131.43 483.492L131.789 484.68L129.391 485.391L130.938 487.508L129.969 488.242L128.516 485.992L127.109 488.188L126.133 487.477L127.703 485.32ZM134.594 485.32L132.234 484.617L132.594 483.438L134.953 484.312L134.883 481.625H136.078L136 484.352L138.32 483.492L138.68 484.68L136.281 485.391L137.828 487.508L136.859 488.242L135.406 485.992L134 488.188L133.023 487.477L134.594 485.32ZM141.484 485.32L139.125 484.617L139.484 483.438L141.844 484.312L141.773 481.625H142.969L142.891 484.352L145.211 483.492L145.57 484.68L143.172 485.391L144.719 487.508L143.75 488.242L142.297 485.992L140.891 488.188L139.914 487.477L141.484 485.32ZM148.375 485.32L146.016 484.617L146.375 483.438L148.734 484.312L148.664 481.625H149.859L149.781 484.352L152.102 483.492L152.461 484.68L150.062 485.391L151.609 487.508L150.641 488.242L149.188 485.992L147.781 488.188L146.805 487.477L148.375 485.32ZM155.266 485.32L152.906 484.617L153.266 483.438L155.625 484.312L155.555 481.625H156.75L156.672 484.352L158.992 483.492L159.352 484.68L156.953 485.391L158.5 487.508L157.531 488.242L156.078 485.992L154.672 488.188L153.695 487.477L155.266 485.32ZM162.156 485.32L159.797 484.617L160.156 483.438L162.516 484.312L162.445 481.625H163.641L163.562 484.352L165.883 483.492L166.242 484.68L163.844 485.391L165.391 487.508L164.422 488.242L162.969 485.992L161.562 488.188L160.586 487.477L162.156 485.32ZM169.047 485.32L166.688 484.617L167.047 483.438L169.406 484.312L169.336 481.625H170.531L170.453 484.352L172.773 483.492L173.133 484.68L170.734 485.391L172.281 487.508L171.312 488.242L169.859 485.992L168.453 488.188L167.477 487.477L169.047 485.32ZM175.938 485.32L173.578 484.617L173.938 483.438L176.297 484.312L176.227 481.625H177.422L177.344 484.352L179.664 483.492L180.023 484.68L177.625 485.391L179.172 487.508L178.203 488.242L176.75 485.992L175.344 488.188L174.367 487.477L175.938 485.32Z" fill="#F2F2F2"/>
<path d="M304.045 558.399H299.731V561.927H304.742V563H298.419V553.047H304.674V554.127H299.731V557.326H304.045V558.399ZM314.025 563H312.706L307.695 555.33V563H306.376V553.047H307.695L312.72 560.751V553.047H314.025V563ZM323.028 554.127H319.829V563H318.523V554.127H315.331V553.047H323.028V554.127ZM328.155 558.974H325.817V563H324.498V553.047H327.793C328.914 553.047 329.775 553.302 330.377 553.812C330.983 554.323 331.286 555.066 331.286 556.041C331.286 556.661 331.118 557.201 330.78 557.661C330.448 558.121 329.983 558.465 329.386 558.693L331.724 562.918V563H330.315L328.155 558.974ZM325.817 557.9H327.834C328.486 557.9 329.003 557.732 329.386 557.395C329.773 557.057 329.967 556.606 329.967 556.041C329.967 555.426 329.782 554.954 329.413 554.626C329.049 554.298 328.52 554.132 327.827 554.127H325.817V557.9ZM338.628 560.402H334.458L333.521 563H332.168L335.969 553.047H337.117L340.925 563H339.578L338.628 560.402ZM334.854 559.322H338.238L336.543 554.667L334.854 559.322ZM345.915 558.974H343.577V563H342.258V553.047H345.553C346.674 553.047 347.535 553.302 348.137 553.812C348.743 554.323 349.046 555.066 349.046 556.041C349.046 556.661 348.877 557.201 348.54 557.661C348.207 558.121 347.743 558.465 347.146 558.693L349.483 562.918V563H348.075L345.915 558.974ZM343.577 557.9H345.594C346.245 557.9 346.763 557.732 347.146 557.395C347.533 557.057 347.727 556.606 347.727 556.041C347.727 555.426 347.542 554.954 347.173 554.626C346.808 554.298 346.28 554.132 345.587 554.127H343.577V557.9Z" fill="white"/>
<path d="M111.717 237.793H103.383V234.026C101.073 236.814 98.262 238.233 94.8984 238.233C91.5347 238.233 88.7233 237.303 86.4139 235.396C84.1045 233.488 83 230.944 83 227.765C83 224.586 84.2049 222.238 86.5645 220.623C88.9241 219.058 92.1873 218.276 96.2539 218.276H102.881V218.08C102.881 214.754 101.073 213.139 97.509 213.139C95.9526 213.139 94.3461 213.433 92.6392 214.02C90.9322 214.607 89.4763 215.341 88.2714 216.221L84.3053 210.694C88.4722 207.71 93.2416 206.242 98.6135 206.242C102.479 206.242 105.642 207.172 108.102 209.079C110.562 210.987 111.767 213.922 111.767 218.031V237.793H111.717ZM102.78 225.955V224.439H97.2579C93.6935 224.439 91.9363 225.515 91.9363 227.667C91.9363 228.792 92.3379 229.624 93.1914 230.211C94.0449 230.798 95.2498 231.091 96.8061 231.091C98.3624 231.091 99.7681 230.602 100.973 229.673C102.228 228.792 102.78 227.52 102.78 225.955Z" fill="white"/>
<path d="M136.869 206.242C140.584 206.242 143.898 207.759 146.759 210.792C149.671 213.824 151.127 217.591 151.127 222.189C151.127 226.787 149.671 230.602 146.759 233.684C143.847 236.765 140.484 238.282 136.568 238.282C132.702 238.282 129.539 236.765 127.18 233.733V248.994H118.344V206.78H127.23V210.253C129.941 207.563 133.154 206.242 136.869 206.242ZM127.079 222.287C127.079 224.781 127.782 226.885 129.238 228.45C130.694 230.064 132.401 230.847 134.459 230.847C136.518 230.847 138.325 230.064 139.831 228.45C141.387 226.836 142.14 224.83 142.14 222.287C142.14 219.792 141.387 217.689 139.881 216.025C138.375 214.313 136.568 213.482 134.509 213.482C132.401 213.482 130.644 214.313 129.238 215.977C127.832 217.689 127.079 219.792 127.079 222.287Z" fill="white"/>
<path d="M174.773 206.242C178.488 206.242 181.801 207.759 184.663 210.792C187.575 213.824 189.031 217.591 189.031 222.189C189.031 226.787 187.575 230.602 184.663 233.684C181.751 236.765 178.387 238.282 174.472 238.282C170.606 238.282 167.443 236.765 165.083 233.733V248.994H156.197V206.78H165.083V210.253C167.845 207.563 171.058 206.242 174.773 206.242ZM164.983 222.287C164.983 224.781 165.686 226.885 167.142 228.45C168.598 230.064 170.305 230.847 172.363 230.847C174.421 230.847 176.229 230.064 177.735 228.45C179.291 226.836 180.044 224.83 180.044 222.287C180.044 219.792 179.291 217.689 177.785 216.025C176.279 214.313 174.472 213.482 172.413 213.482C170.305 213.482 168.547 214.313 167.142 215.977C165.686 217.689 164.983 219.792 164.983 222.287Z" fill="white"/>
<path d="M209.866 214.363C207.205 214.363 205.247 215.292 203.942 217.102C202.637 218.912 201.984 221.358 201.984 224.341V237.793H193.148V206.781H202.034V210.89C203.189 209.618 204.594 208.542 206.301 207.661C208.008 206.781 209.765 206.341 211.523 206.292L211.573 214.412H209.866V214.363Z" fill="white"/>
<path d="M274.779 237.793L262.178 206.732H271.415L279.348 226.249L287.28 206.732H296.517L283.916 237.793H274.779Z" fill="white"/>
<path d="M326.439 233.292C322.824 236.619 318.658 238.233 313.788 238.233C308.968 238.233 304.952 236.765 301.789 233.879C298.626 230.993 297.07 227.08 297.07 222.189C297.07 217.297 298.676 213.433 301.889 210.547C305.102 207.661 308.918 206.242 313.286 206.242C317.653 206.242 321.369 207.514 324.431 210.107C327.493 212.699 329 216.221 329 220.721V225.319H305.805C306.056 227.031 307.01 228.401 308.516 229.477C310.073 230.553 311.78 231.091 313.738 231.091C316.85 231.091 319.411 230.064 321.419 228.058L326.439 233.292ZM317.904 214.9C316.7 213.922 315.193 213.384 313.436 213.384C311.679 213.384 310.073 213.922 308.617 214.949C307.161 215.976 306.307 217.395 306.056 219.156H320.013C319.862 217.297 319.16 215.879 317.904 214.9Z" fill="white"/>
<path d="M319.21 257.505C320.114 257.505 320.817 256.821 320.817 255.94C320.817 255.06 320.114 254.375 319.21 254.375C318.307 254.375 317.604 255.06 317.604 255.94C317.604 256.821 318.307 257.505 319.21 257.505Z" fill="#F2F2F2"/>
<path d="M319.211 262.299C320.164 262.299 320.917 261.565 320.917 260.636C320.917 259.707 320.164 258.973 319.211 258.973C318.257 258.973 317.504 259.707 317.504 260.636C317.504 261.565 318.257 262.299 319.211 262.299Z" fill="#F2F2F2"/>
<path d="M322.423 251.244C322.423 252.174 323.177 252.908 324.13 252.908C325.084 252.908 325.837 252.174 325.837 251.244C325.837 250.315 325.084 249.581 324.13 249.581C323.177 249.581 322.423 250.364 322.423 251.244Z" fill="#F2F2F2"/>
<path d="M317.504 251.244C317.504 252.174 318.257 252.908 319.211 252.908C320.164 252.908 320.917 252.174 320.917 251.244C320.917 250.315 320.164 249.581 319.211 249.581C318.257 249.581 317.504 250.364 317.504 251.244Z" fill="#F2F2F2"/>
<path d="M312.634 251.244C312.634 252.174 313.387 252.908 314.341 252.908C315.294 252.908 316.048 252.174 316.048 251.244C316.048 250.315 315.294 249.581 314.341 249.581C313.387 249.581 312.634 250.364 312.634 251.244Z" fill="#F2F2F2"/>
<path d="M259.919 266.604V256.429H262.279V260.685L267.751 256.429H271.115L264.538 261.223L271.918 266.604H268.203L262.279 262.152V266.604H259.919Z" fill="#F2F2F2"/>
<path d="M286.979 266.604V256.429H289.389L289.439 266.604H286.979Z" fill="#F2F2F2"/>
<path d="M302.241 259.169H300.083C300.083 258.924 300.083 258.679 300.083 258.484C300.083 258.19 300.083 258.19 299.832 258.19H293.556C293.305 258.19 293.154 258.386 293.154 258.582V260.098C293.154 260.44 293.456 260.44 293.606 260.44H300.083C302.241 260.44 302.241 261.565 302.241 262.348V264.941C302.241 265.674 302.241 266.653 300.635 266.653H293.154C291.498 266.653 290.996 266.114 290.996 264.696V263.767H293.154V264.354C293.154 264.402 293.154 264.696 293.606 264.696H299.882C300.083 264.696 300.083 264.696 300.083 264.5V262.495C300.083 262.397 299.932 262.299 299.932 262.299H293.154C292.502 262.299 290.996 262.299 290.996 260.685V258.092C290.996 256.967 291.648 256.38 292.602 256.38H300.133C301.288 256.38 302.241 256.967 302.241 258.092V259.169Z" fill="#F2F2F2"/>
<path d="M258.263 256.429V258.141H249.879V260.44H254.749V262.152H249.879V264.745H258.263V266.604H247.519V256.429H258.263Z" fill="#F2F2F2"/>
<path d="M285.172 256.429H283.064V263.277L274.479 256.429H272.972V266.604H275.081V259.805L283.566 266.604H285.172V256.429Z" fill="#F2F2F2"/>
<path d="M233.713 256.429H245.812V258.239H240.993V266.604H238.533V258.239H233.713V256.429Z" fill="#F2F2F2"/>
<path d="M311.027 256.429H308.718L302.744 266.653H305.204L306.459 264.403H313.186L314.391 266.653H316.851L311.027 256.429ZM309.873 262.495H307.563L309.873 258.435L309.923 258.386L312.232 262.544L309.873 262.495Z" fill="#F2F2F2"/>
<path d="M217.056 260.189C217.056 261.526 216.741 262.601 216.11 263.415C215.479 264.224 214.633 264.628 213.571 264.628C212.436 264.628 211.559 264.237 210.94 263.456L210.865 264.466H209.454V252.046H210.989V256.68C211.609 255.93 212.464 255.556 213.554 255.556C214.644 255.556 215.499 255.957 216.118 256.76C216.744 257.564 217.056 258.663 217.056 260.06V260.189ZM215.521 260.019C215.521 259 215.319 258.213 214.915 257.658C214.511 257.103 213.93 256.825 213.172 256.825C212.16 256.825 211.432 257.283 210.989 258.2V261.984C211.46 262.9 212.193 263.359 213.189 263.359C213.925 263.359 214.497 263.081 214.907 262.526C215.316 261.971 215.521 261.135 215.521 260.019Z" fill="#F2F2F2"/>
<path d="M221.837 262.275L223.928 255.717H225.571L221.961 265.817C221.402 267.272 220.514 268 219.297 268L219.007 267.976L218.434 267.871V266.658L218.849 266.69C219.369 266.69 219.773 266.588 220.061 266.383C220.354 266.178 220.594 265.803 220.783 265.259L221.123 264.369L217.919 255.717H219.596L221.837 262.275Z" fill="#F2F2F2"/>
<path d="M238.633 200C226.233 200 216.142 209.783 216.142 221.914C216.142 233.996 226.182 243.828 238.633 243.828C251.084 243.828 261.124 234.045 261.124 221.914C261.074 209.783 251.033 200 238.633 200ZM248.774 211.691L251.435 214.136L234.215 232.088L225.781 222.648L228.542 220.3L234.315 226.756L248.774 211.691Z" fill="white"/>
</g>
<defs>
<clipPath id="clip0_502_12974">
<rect width="411" height="731" fill="white"/>
</clipPath>
<clipPath id="clip1_502_12974">
<rect width="411" height="731" fill="white"/>
</clipPath>
</defs>
</svg>
